<svg xmlns="http://www.w3.org/2000/svg" viewBox="0 0 200 200" width="200" height="200">
  <defs>
    <linearGradient id="bgGradient" x1="0%" y1="0%" x2="100%" y2="100%">
      <stop offset="0%" style="stop-color:#667eea;stop-opacity:1" />
      <stop offset="100%" style="stop-color:#764ba2;stop-opacity:1" />
    </linearGradient>
    <linearGradient id="suitGradient" x1="0%" y1="0%" x2="100%" y2="100%">
      <stop offset="0%" style="stop-color:#2c3e50;stop-opacity:1" />
      <stop offset="100%" style="stop-color:#34495e;stop-opacity:1" />
    </linearGradient>
  </defs>
  
  <!-- Background circle -->
  <circle cx="100" cy="100" r="95" fill="url(#bgGradient)" stroke="#fff" stroke-width="4"/>
  
  <!-- Professional silhouette -->
  <!-- Head -->
  <circle cx="100" cy="70" r="25" fill="#f4f4f4"/>
  
  <!-- Body (suit) -->
  <rect x="75" y="95" width="50" height="60" rx="5" fill="url(#suitGradient)"/>
  
  <!-- Tie -->
  <rect x="95" y="95" width="10" height="40" fill="#e74c3c"/>
  
  <!-- Arms -->
  <rect x="60" y="100" width="15" height="40" rx="7" fill="url(#suitGradient)"/>
  <rect x="125" y="100" width="15" height="40" rx="7" fill="url(#suitGradient)"/>
  
  <!-- Professional elements -->
  <!-- Briefcase icon -->
  <rect x="140" y="120" width="20" height="15" rx="2" fill="#8b4513"/>
  <rect x="142" y="122" width="16" height="8" fill="#d2691e"/>
  <rect x="145" y="125" width="10" height="2" fill="#8b4513"/>
  
  <!-- Cloud/tech elements -->
  <circle cx="50" cy="50" r="8" fill="#fff" opacity="0.8"/>
  <circle cx="60" cy="50" r="10" fill="#fff" opacity="0.8"/>
  <circle cx="70" cy="50" r="8" fill="#fff" opacity="0.8"/>
  
  <!-- AWS/Cloud symbols -->
  <rect x="150" y="40" width="12" height="8" rx="1" fill="#ff9900" opacity="0.8"/>
  <rect x="150" y="50" width="12" height="8" rx="1" fill="#ff9900" opacity="0.8"/>
  <rect x="150" y="60" width="12" height="8" rx="1" fill="#ff9900" opacity="0.8"/>
</svg>
