<svg xmlns="http://www.w3.org/2000/svg" viewBox="0 0 32 32" width="32" height="32">
  <defs>
    <linearGradient id="grad1" x1="0%" y1="0%" x2="100%" y2="100%">
      <stop offset="0%" style="stop-color:#1a365d;stop-opacity:1" />
      <stop offset="100%" style="stop-color:#3182ce;stop-opacity:1" />
    </linearGradient>
  </defs>
  
  <!-- Background circle -->
  <circle cx="16" cy="16" r="15" fill="url(#grad1)" stroke="#ffffff" stroke-width="1"/>
  
  <!-- Cloud symbol -->
  <path d="M8 12c-1.1 0-2 .9-2 2s.9 2 2 2h2c0-2.2 1.8-4 4-4s4 1.8 4 4h2c1.1 0 2-.9 2-2s-.9-2-2-2c0-2.2-1.8-4-4-4s-4 1.8-4 4c-2.2 0-4 1.8-4 4z" fill="#ffffff"/>
  
  <!-- Gear symbol -->
  <g transform="translate(20, 8)" fill="#ffffff">
    <circle cx="0" cy="0" r="2.5"/>
    <rect x="-0.3" y="-4" width="0.6" height="2" rx="0.3"/>
    <rect x="-0.3" y="2" width="0.6" height="2" rx="0.3"/>
    <rect x="-4" y="-0.3" width="2" height="0.6" rx="0.3"/>
    <rect x="2" y="-0.3" width="2" height="0.6" rx="0.3"/>
    <rect x="-2.8" y="-2.8" width="0.6" height="1.5" rx="0.3" transform="rotate(45)"/>
    <rect x="2.2" y="2.2" width="0.6" height="1.5" rx="0.3" transform="rotate(45)"/>
    <rect x="2.8" y="-2.8" width="0.6" height="1.5" rx="0.3" transform="rotate(-45)"/>
    <rect x="-2.2" y="2.2" width="0.6" height="1.5" rx="0.3" transform="rotate(-45)"/>
  </g>
  
  <!-- Circuit pattern -->
  <g fill="#ffffff" opacity="0.7">
    <rect x="6" y="20" width="2" height="1" rx="0.5"/>
    <rect x="9" y="20" width="3" height="1" rx="0.5"/>
    <rect x="13" y="20" width="2" height="1" rx="0.5"/>
    <rect x="16" y="20" width="1" height="1" rx="0.5"/>
    <rect x="18" y="20" width="2" height="1" rx="0.5"/>
    <rect x="21" y="20" width="3" height="1" rx="0.5"/>
    <rect x="25" y="20" width="2" height="1" rx="0.5"/>
    
    <rect x="6" y="22" width="1" height="1" rx="0.5"/>
    <rect x="8" y="22" width="4" height="1" rx="0.5"/>
    <rect x="13" y="22" width="1" height="1" rx="0.5"/>
    <rect x="15" y="22" width="3" height="1" rx="0.5"/>
    <rect x="19" y="22" width="1" height="1" rx="0.5"/>
    <rect x="21" y="22" width="4" height="1" rx="0.5"/>
    <rect x="26" y="22" width="1" height="1" rx="0.5"/>
  </g>
</svg>
